<svg width="1920" height="1080" viewBox="0 0 1920 1080" xmlns="http://www.w3.org/2000/svg"><rect width="1920" height="1080" fill="#ffffff"/><path d="M 0,1080 C 0,1080 0,180 0,180 C 116.38205128205132,173.82051282051282 232.76410256410264,167.64102564102564 331,175 C 429.23589743589736,182.35897435897436 509.32564102564095,203.25641025641028 601,225 C 692.674358974359,246.74358974358972 795.9333333333334,269.33333333333337 926,247 C 1056.0666666666666,224.66666666666663 1212.9410256410256,157.41025641025638 1338,154 C 1463.0589743589744,150.58974358974362 1556.302564102564,211.02564102564102 1648,226 C 1739.697435897436,240.97435897435898 1829.8487179487179,210.4871794871795 1920,180 C 1920,180 1920,1080 1920,1080 Z" fill="#f9b348" opacity="0.09999999999999999"/><path d="M 0,1080 C 0,1080 0,360 0,360 C 100.61538461538461,362.2948717948718 201.23076923076923,364.5897435897436 309,362 C 416.7692307692308,359.4102564102564 531.6923076923076,351.9358974358974 637,370 C 742.3076923076924,388.0641025641026 838,431.6666666666667 939,418 C 1040,404.3333333333333 1146.3076923076924,333.3974358974359 1256,316 C 1365.6923076923076,298.6025641025641 1478.7692307692307,334.7435897435898 1590,351 C 1701.2307692307693,367.2564102564102 1810.6153846153848,363.6282051282051 1920,360 C 1920,360 1920,1080 1920,1080 Z" fill="#f9b348" opacity="0.19999999999999998"/><path d="M 0,1080 C 0,1080 0,540 0,540 C 104.81282051282051,513.376923076923 209.62564102564102,486.7538461538461 306,491 C 402.374358974359,495.2461538461539 490.31025641025633,530.3615384615385 595,555 C 699.6897435897437,579.6384615384615 821.1333333333334,593.8 954,600 C 1086.8666666666666,606.2 1231.1564102564103,604.4384615384615 1332,580 C 1432.8435897435897,555.5615384615385 1490.2410256410255,508.4461538461539 1581,498 C 1671.7589743589745,487.5538461538461 1795.8794871794871,513.776923076923 1920,540 C 1920,540 1920,1080 1920,1080 Z" fill="#f9b348" opacity="0.3"/><path d="M 0,1080 C 0,1080 0,720 0,720 C 137.4205128205128,736.7461538461539 274.8410256410256,753.4923076923077 378,761 C 481.1589743589744,768.5076923076923 550.0564102564102,766.776923076923 644,765 C 737.9435897435898,763.223076923077 856.9333333333334,761.4000000000001 959,764 C 1061.0666666666666,766.5999999999999 1146.2102564102565,773.623076923077 1262,769 C 1377.7897435897435,764.376923076923 1524.225641025641,748.1076923076922 1639,738 C 1753.774358974359,727.8923076923078 1836.8871794871795,723.946153846154 1920,720 C 1920,720 1920,1080 1920,1080 Z" fill="#f9b348" opacity="0.39999999999999997"/><path d="M 0,1080 C 0,1080 0,900 0,900 C 131.6153846153846,879.4615384615386 263.2307692307692,858.923076923077 376,873 C 488.7692307692308,887.076923076923 582.6923076923077,935.7692307692307 674,932 C 765.3076923076923,928.2307692307693 854,872 968,873 C 1082,874 1221.3076923076924,932.2307692307693 1329,956 C 1436.6923076923076,979.7692307692307 1512.7692307692307,969.0769230769231 1606,954 C 1699.2307692307693,938.9230769230769 1809.6153846153848,919.4615384615385 1920,900 C 1920,900 1920,1080 1920,1080 Z" fill="#f9b348" opacity="0.49999999999999994"/></svg>